<?xml version="1.0" standalone="no"?>
<!DOCTYPE svg PUBLIC "-//W3C//DTD SVG 20010904//EN"
 "http://www.w3.org/TR/2001/REC-SVG-20010904/DTD/svg10.dtd">
<svg version="1.0" xmlns="http://www.w3.org/2000/svg"
 width="495.000000pt" height="391.000000pt" viewBox="0 0 495.000000 391.000000"
 preserveAspectRatio="xMidYMid meet">

<g transform="translate(0.000000,391.000000) scale(0.100000,-0.100000)"
fill="#000000" stroke="none">
<path d="M0 1955 l0 -1955 2475 0 2475 0 0 1955 0 1955 -2475 0 -2475 0 0
-1955z m4545 1575 c70 -43 65 73 65 -1570 0 -1643 5 -1527 -65 -1570 -32 -20
-45 -20 -2041 -20 -1975 0 -2010 0 -2041 20 -67 41 -63 -76 -63 1569 0 1649
-5 1530 63 1571 31 20 66 20 2041 20 1996 0 2009 0 2041 -20z"/>
<path d="M714 3404 c-79 -39 -77 -151 4 -190 29 -14 41 -14 74 -5 42 13 78 58
78 99 0 39 -29 83 -65 98 -43 17 -52 17 -91 -2z"/>
<path d="M1003 3401 c-39 -24 -53 -49 -53 -93 0 -97 122 -141 184 -67 77 91
-31 222 -131 160z"/>
<path d="M1303 3404 c-18 -9 -39 -32 -49 -52 -15 -32 -15 -41 -3 -77 11 -30
23 -45 53 -59 36 -17 43 -18 80 -5 56 19 84 73 67 130 -19 64 -88 93 -148 63z"/>
<path d="M590 1790 l0 -1230 1915 0 1915 0 0 1230 0 1230 -1915 0 -1915 0 0
-1230z m2305 697 c8 -12 15 -34 15 -50 0 -18 -103 -246 -257 -566 -141 -295
-283 -591 -315 -659 -51 -108 -63 -125 -93 -137 -58 -25 -125 18 -125 80 0 23
619 1316 643 1342 34 38 102 33 132 -10z m-970 -271 c18 -8 38 -23 44 -34 18
-34 13 -93 -9 -117 -11 -12 -131 -71 -265 -131 -134 -60 -241 -111 -237 -115
4 -3 116 -54 250 -114 142 -63 249 -117 258 -129 14 -21 19 -82 8 -111 -8 -20
-56 -45 -88 -45 -34 0 -593 266 -629 298 -55 52 -56 150 -3 204 24 23 575 291
634 307 1 1 18 -5 37 -13z m1564 -131 c332 -157 351 -171 351 -258 0 -98 -7
-103 -335 -261 -171 -81 -307 -140 -331 -143 -51 -7 -92 25 -100 77 -10 71 8
84 279 205 136 60 247 112 247 115 0 3 -111 55 -247 115 -204 91 -250 115
-265 140 -40 63 5 145 79 145 25 0 120 -40 322 -135z"/>
</g>
</svg>
