<?xml version="1.0" standalone="no"?>
<!DOCTYPE svg PUBLIC "-//W3C//DTD SVG 20010904//EN"
 "http://www.w3.org/TR/2001/REC-SVG-20010904/DTD/svg10.dtd">
<svg version="1.0" xmlns="http://www.w3.org/2000/svg"
 width="1110.000000pt" height="238.000000pt" viewBox="0 0 1110.000000 238.000000"
 preserveAspectRatio="xMidYMid meet">

<g transform="translate(0.000000,238.000000) scale(0.100000,-0.100000)"
fill="#000000" stroke="none">
<path d="M0 1190 l0 -1190 5550 0 5550 0 0 1190 0 1190 -5550 0 -5550 0 0
-1190z m2928 600 c17 -11 33 -21 34 -22 1 -2 5 -229 8 -506 5 -489 6 -504 25
-518 19 -14 31 -14 67 1 24 9 35 -53 16 -91 -30 -62 -145 -83 -206 -37 -33 24
-62 81 -69 133 -3 22 -8 40 -12 40 -3 0 -17 -23 -30 -51 -50 -105 -164 -168
-280 -155 -119 14 -189 76 -232 207 -20 63 -24 94 -24 204 0 239 61 376 197
444 54 27 71 31 142 30 107 -1 160 -21 199 -79 16 -24 17 -21 17 90 0 105 -8
185 -25 265 -6 27 -3 32 27 47 46 23 106 22 146 -2z m4955 -2 c23 -16 24 -18
12 -75 -7 -32 -15 -137 -19 -233 -6 -169 -5 -174 11 -150 77 109 132 140 248
140 97 0 147 -20 193 -76 57 -69 64 -109 73 -429 4 -159 10 -302 14 -316 18
-70 -147 -92 -190 -26 -10 17 -14 88 -18 317 -3 242 -7 304 -21 347 -22 68
-54 93 -119 93 -45 0 -53 -4 -92 -42 -25 -26 -51 -67 -66 -103 -21 -56 -23
-77 -27 -285 -2 -172 0 -238 11 -279 l15 -53 -46 -20 c-59 -26 -108 -19 -144
22 l-28 30 0 553 c0 582 -1 570 45 596 27 15 117 8 148 -11z m-1359 -27 c42
-42 43 -107 2 -150 -54 -56 -139 -50 -177 13 -71 116 78 233 175 137z m-5582
-7 c189 -45 259 -179 135 -254 -18 -11 -46 -20 -63 -20 -29 0 -32 3 -38 42 -9
58 -53 135 -90 157 -102 62 -232 18 -291 -99 -51 -101 -60 -158 -60 -400 0
-184 3 -237 18 -290 27 -101 66 -170 115 -205 38 -26 52 -30 111 -30 57 0 74
4 109 27 48 33 91 101 107 172 13 60 32 68 102 41 56 -22 77 -53 70 -105 -14
-106 -153 -188 -351 -206 -244 -22 -420 116 -483 376 -26 110 -23 346 6 453
54 204 186 333 363 356 74 10 161 5 240 -15z m3332 6 c55 -21 56 -27 56 -547
0 -365 3 -491 14 -535 l13 -58 -42 -20 c-49 -24 -74 -25 -120 -6 -61 26 -59
13 -66 576 -3 283 -10 527 -14 542 -6 22 -3 29 21 42 33 17 101 21 138 6z
m4562 -109 l31 -19 -13 -73 c-22 -121 -29 -112 86 -107 l100 4 0 -32 c0 -53
-20 -64 -116 -64 l-84 0 0 -289 c0 -269 1 -290 19 -312 15 -19 28 -24 63 -23
23 1 49 3 57 5 22 6 35 -45 19 -77 -26 -53 -61 -69 -152 -69 -75 0 -86 3 -119
28 -72 54 -72 55 -75 415 l-3 322 -63 0 -63 0 5 33 c7 47 19 57 73 57 l49 0 0
78 c0 83 13 116 54 132 37 15 100 11 132 -9z m-2829 -197 c91 -25 142 -88 129
-157 -8 -45 -36 -68 -88 -74 l-44 -5 -12 60 c-10 47 -20 67 -46 90 -58 51
-159 54 -216 5 -25 -21 -30 -32 -30 -69 0 -69 42 -107 213 -194 172 -88 199
-107 234 -168 53 -90 27 -215 -58 -282 -69 -55 -137 -73 -279 -73 -147 -1
-218 20 -269 78 -79 91 -49 215 53 215 l41 0 2 -50 c5 -112 74 -172 199 -172
108 -1 174 52 160 127 -10 51 -56 87 -204 160 -143 71 -210 123 -243 187 -40
79 -33 179 17 245 29 39 111 79 184 92 67 12 187 5 257 -15z m-4126 -17 c97
-47 173 -149 198 -265 16 -76 14 -237 -5 -307 -49 -191 -216 -301 -422 -281
-238 24 -366 205 -349 490 9 154 64 268 161 334 75 50 125 62 251 59 97 -2
117 -5 166 -30z m1899 2 c100 -47 142 -109 142 -209 0 -68 -14 -105 -55 -148
-72 -76 -182 -106 -356 -100 l-111 3 0 -26 c0 -55 39 -154 72 -186 55 -52 95
-67 178 -67 63 -1 85 4 133 27 31 16 69 44 83 63 30 39 44 36 44 -10 0 -53
-55 -125 -120 -159 -152 -77 -357 -52 -480 59 -47 43 -94 133 -111 212 -17 85
-7 264 20 332 44 112 116 183 224 222 42 15 75 18 167 15 99 -2 123 -6 170
-28z m946 0 c34 -31 54 -78 54 -126 l0 -38 26 45 c61 108 134 150 259 150 97
0 147 -20 193 -76 57 -69 64 -109 72 -419 4 -155 12 -295 18 -314 6 -19 9 -37
7 -42 -3 -4 -25 -15 -50 -24 -54 -21 -107 -14 -141 20 -24 24 -24 24 -24 269
0 408 -24 491 -139 491 -86 0 -156 -83 -181 -214 -15 -82 -13 -426 4 -490 l14
-53 -42 -19 c-22 -10 -52 -19 -64 -19 -38 0 -89 29 -101 58 -6 16 -11 151 -13
343 -3 338 -5 349 -54 349 -12 0 -26 -5 -30 -11 -10 -17 -24 11 -24 51 0 40
22 77 54 91 11 5 47 7 78 6 45 -3 64 -9 84 -28z m1788 8 c21 -22 23 -33 29
-206 4 -102 7 -258 7 -347 0 -90 5 -186 11 -214 13 -61 5 -75 -54 -91 -30 -8
-51 -8 -79 0 -68 21 -68 21 -68 346 0 264 -8 407 -25 477 -6 22 -2 29 22 42
15 8 52 15 81 16 42 0 58 -5 76 -23z m820 -5 c33 -12 77 -33 99 -47 l38 -26
-3 -417 c-4 -400 -5 -419 -26 -476 -49 -132 -148 -211 -297 -237 -72 -12 -195
-7 -256 11 -90 26 -149 94 -149 172 0 41 5 54 34 86 33 35 37 37 100 37 77 0
99 -14 71 -45 -26 -29 -33 -122 -10 -156 38 -59 151 -69 224 -21 75 50 121
185 120 357 l0 95 -19 -36 c-26 -49 -91 -106 -137 -118 -21 -6 -70 -11 -109
-11 -158 0 -246 93 -275 289 -27 189 16 376 110 474 73 78 138 98 301 94 97
-3 138 -9 184 -25z m2418 -6 c106 -51 155 -148 130 -257 -33 -141 -166 -205
-407 -197 -85 2 -115 0 -115 -9 0 -27 23 -120 37 -148 52 -103 171 -146 303
-109 52 14 75 28 114 67 53 53 72 50 60 -8 -25 -124 -185 -208 -362 -191 -219
22 -346 166 -359 406 -13 237 79 403 254 461 46 15 81 18 173 16 102 -2 122
-6 172 -31z m427 20 c36 -19 57 -52 72 -111 l12 -47 14 33 c39 94 106 139 205
139 73 0 139 -28 172 -72 27 -38 34 -134 12 -177 -31 -60 -102 -86 -161 -59
-20 9 -25 17 -20 32 4 12 9 49 12 82 5 54 2 65 -16 83 -53 53 -133 10 -165
-87 -44 -133 -50 -470 -11 -623 6 -23 2 -28 -28 -43 -56 -26 -111 -21 -149 13
l-33 29 -5 332 c-4 279 -7 332 -20 340 -20 13 -47 13 -55 0 -20 -32 -39 44
-24 90 6 17 23 37 38 45 34 19 114 19 150 1z"/>
<path d="M2575 1373 c-65 -18 -116 -95 -136 -207 -13 -79 -7 -323 10 -378 7
-21 23 -50 36 -65 21 -25 30 -28 84 -28 55 0 63 3 95 34 129 125 156 550 40
626 -26 17 -97 27 -129 18z"/>
<path d="M1655 1403 c-60 -15 -112 -89 -134 -191 -17 -79 -14 -300 5 -382 28
-123 80 -175 174 -175 52 0 63 4 90 30 18 17 40 46 50 65 58 114 63 392 10
534 -36 96 -109 140 -195 119z"/>
<path d="M3520 1388 c-60 -32 -106 -119 -121 -232 -15 -110 -15 -109 84 -104
146 8 219 62 232 173 18 142 -80 224 -195 163z"/>
<path d="M7060 1388 c-85 -44 -120 -153 -120 -380 0 -172 12 -232 55 -275 29
-29 39 -33 88 -33 72 0 113 28 149 100 38 76 48 155 48 376 l0 190 -35 17
c-20 9 -59 19 -88 23 -42 4 -60 1 -97 -18z"/>
<path d="M9503 1399 c-40 -12 -97 -78 -118 -138 -9 -25 -19 -83 -22 -128 l-6
-83 63 0 c86 0 175 26 210 62 65 65 67 214 4 270 -24 21 -89 30 -131 17z"/>
</g>
</svg>
