<?xml version="1.0" standalone="no"?>
<!DOCTYPE svg PUBLIC "-//W3C//DTD SVG 20010904//EN"
 "http://www.w3.org/TR/2001/REC-SVG-20010904/DTD/svg10.dtd">
<svg version="1.0" xmlns="http://www.w3.org/2000/svg"
 width="495.000000pt" height="391.000000pt" viewBox="0 0 495.000000 391.000000"
 preserveAspectRatio="xMidYMid meet">

<g transform="translate(0.000000,391.000000) scale(0.100000,-0.100000)"
fill="#000000" stroke="none">
<path d="M0 1955 l0 -1955 2475 0 2475 0 0 1955 0 1955 -2475 0 -2475 0 0
-1955z m4487 1575 c18 -10 40 -34 50 -52 17 -31 18 -107 18 -1518 0 -1411 -1
-1487 -18 -1518 -10 -18 -32 -42 -50 -52 -31 -20 -66 -20 -2041 -20 -1996 0
-2009 0 -2041 20 -70 43 -65 -73 -65 1572 0 1394 1 1485 18 1516 9 18 31 41
47 52 30 20 56 20 2040 20 1976 0 2011 0 2042 -20z"/>
<path d="M3550 3402 c-78 -38 -74 -155 7 -188 30 -13 44 -14 74 -5 91 27 101
154 14 195 -42 20 -52 20 -95 -2z"/>
<path d="M3854 3410 c-64 -26 -84 -115 -38 -169 63 -75 184 -30 184 69 0 75
-77 128 -146 100z"/>
<path d="M4143 3405 c-33 -14 -63 -59 -63 -95 0 -62 65 -117 125 -106 40 8 82
47 90 86 9 41 -19 95 -60 114 -40 19 -51 19 -92 1z"/>
<path d="M530 1790 l0 -1230 1915 0 1915 0 0 1230 0 1230 -1915 0 -1915 0 0
-1230z m1658 706 c21 -23 627 -1285 637 -1327 19 -78 -96 -140 -148 -80 -31
34 -637 1319 -637 1348 0 78 96 117 148 59z m1195 -413 c158 -75 299 -147 312
-161 57 -56 53 -159 -8 -207 -45 -36 -592 -295 -623 -295 -32 0 -80 25 -88 45
-14 38 -6 96 17 118 12 12 128 69 257 126 129 58 238 107 242 110 4 4 -103 55
-237 115 -134 60 -254 119 -266 132 -24 25 -28 78 -9 114 14 26 67 51 95 44
11 -3 150 -66 308 -141z m-1538 115 c34 -31 42 -83 17 -123 -15 -25 -61 -49
-265 -140 -136 -60 -247 -112 -247 -115 0 -3 111 -55 246 -115 204 -91 250
-115 266 -140 39 -62 -4 -145 -76 -145 -29 0 -337 139 -574 259 -77 39 -102
75 -102 149 0 85 20 100 350 257 308 145 337 154 385 113z"/>
</g>
</svg>
